<svg
				version="1.0"
				xmlns="http://www.w3.org/2000/svg"
				viewBox="0 0 1920.000000 1920.000000"
				preserveAspectRatio="xMidYMid meet"
			>

<defs>
				<linearGradient id="myGradient2" x2="1" y2="1">
					<stop offset="0%" stop-color="#01a9da" />
					<stop offset="20%" stop-color="#e876ac" />
				  </linearGradient>
				  <linearGradient id="myGradient3" x2="1" y2="1">
					<stop offset="0%" stop-color="#00a658" />
                    <stop offset="50%" stop-color="#01a9da" />
					<stop offset="100%" stop-color="#e876ac" />
				  </linearGradient>
				  <linearGradient id="myGradient4" x2="1" y2="1">
					<stop offset="0%" stop-color="#f4e90e" />
						  <stop offset="33%" stop-color="#00a658" />
						  <stop offset="90%" stop-color="#01a9da" />
						  <stop offset="100%" stop-color="#e876ac" />
				  </linearGradient>
                  <linearGradient id="myGradient5" x2="1" y2="1">
					 <stop offset="0%" stop-color="#f4e90e" />
						  <stop offset="100%" stop-color="#00a658" />
				  </linearGradient>
			  </defs>
			

				<g
					transform="translate(0.000000,1920.000000) scale(0.100000,-0.100000)"
					stroke="none"
				>
					<path fill="url(#myGradient2)"
						d="M14625 16153 c-213 -182 -365 -323 -599 -553 -398 -393 -707 -738
-1093 -1219 l-132 -164 182 -91 c278 -140 470 -268 639 -425 42 -39 80 -71 84
-70 5 0 54 57 109 126 450 567 1017 1161 1477 1549 64 55 117 101 117 104 1 7
-678 814 -687 818 -4 1 -48 -32 -97 -75z"
					/>
					<path fill="url(#myGradient3)"
						d="M11375 14259 c-483 -58 -957 -257 -1345 -566 -111 -88 -329 -305
-414 -413 -279 -354 -563 -876 -886 -1630 -152 -355 -747 -1868 -738 -1875 2
-1 93 -7 203 -14 110 -7 340 -23 510 -36 171 -13 332 -25 358 -26 l49 -3 162
419 c586 1512 883 2130 1208 2520 319 382 821 598 1288 556 239 -22 422 -76
666 -196 237 -117 355 -210 469 -369 367 -515 301 -1483 -149 -2165 -82 -125
-109 -157 -219 -269 -243 -247 -565 -422 -998 -542 l-116 -33 -107 -229 c-181
-385 -422 -935 -414 -943 5 -6 189 18 388 50 928 151 1651 510 2124 1055 420
483 684 1094 782 1805 26 184 26 630 1 800 -60 405 -177 733 -364 1020 -220
338 -495 576 -903 780 -300 150 -572 239 -886 291 -118 19 -548 28 -669 13z"
					/>
					<path fill="url(#myGradient4)"
						d="M11897 12952 c-457 -692 -995 -1615 -1449 -2487 -440 -845 -653
-1317 -1092 -2423 -281 -705 -456 -1100 -612 -1373 -71 -125 -223 -353 -297
-444 -310 -384 -736 -644 -1211 -740 -68 -14 -137 -25 -153 -25 -38 0 -43 -4
-158 -145 -182 -222 -319 -375 -599 -669 -94 -98 -171 -184 -171 -189 0 -11
120 -36 305 -64 88 -13 181 -17 395 -18 242 0 300 3 427 23 920 142 1681 636
2210 1432 133 202 242 395 374 665 141 290 225 487 514 1210 378 945 481 1178
809 1835 518 1037 1001 1888 1533 2702 l110 168 -36 57 c-43 72 -116 157 -179
212 -108 92 -345 212 -532 269 -161 49 -158 49 -188 4z"
					/>
					<path fill="url(#myGradient5)"
						d="M7180 9600 c-593 -45 -1004 -172 -1388 -427 -332 -220 -632 -553
-886 -982 -164 -276 -307 -600 -390 -881 -119 -401 -139 -851 -56 -1234 61
-278 208 -587 390 -817 l38 -49 264 278 c336 353 478 508 478 522 0 6 -13 34
-29 63 -39 69 -85 205 -102 297 -19 103 -16 322 6 445 75 435 364 973 671
1254 283 259 634 398 1119 441 208 19 772 5 1210 -30 467 -36 820 -58 827 -52
4 4 64 142 133 307 69 165 169 398 221 518 53 121 94 220 92 222 -2 2 -100 8
-218 14 -255 14 -490 30 -1095 77 -485 37 -1047 52 -1285 34z"
					/>
					<path fill="url(#myGradient5)"
						d="M7393 8338 c-5 -7 -33 -65 -63 -128 -144 -307 -282 -555 -499 -895
-369 -580 -796 -1142 -1202 -1581 -787 -850 -1346 -1406 -1687 -1677 -48 -38
-102 -81 -119 -95 l-33 -27 245 -475 c135 -261 246 -479 248 -485 9 -25 440
316 706 559 455 415 1583 1616 1942 2068 430 541 861 1179 1133 1676 132 240
495 1006 483 1018 -4 4 -382 32 -602 44 -265 14 -540 13 -552 -2z"
					/>
				</g>
			</svg>